Coordinates
version=1
nRows=23
nColumns=20
inDegrees=yes

Units are S.I. units (second, meters, Newtons, ...)
Angles are in degrees.

endheader
time	thorax_tilt	thorax_list	thorax_rotation	thorax_tx	thorax_ty	thorax_tz	sternoclavicular_r1	sternoclavicular_r2	sternoclavicular_r3	Acromioclavicular_r1	Acromioclavicular_r2	Acromioclavicular_r3	shoulder_r1	shoulder_r2	shoulder_r3	elbow_flexion	pro_sup	hand_r_Add	hand_r_Flex
      0.16000000	     -3.18363677	      6.51361334	     96.39532596	     -0.75852250	      0.72318364	     -0.28557723	     21.34981209	      0.00000000	      0.00000000	      0.00000000	      0.00000000	      0.00000000	    -35.55607673	    -41.35995469	      0.86192136	     23.39436837	      0.00000000	      0.00000000	      0.00000000
      0.16195122	     -3.02512899	      6.64397801	     96.45068089	     -0.75889178	      0.72332378	     -0.28486384	     20.98762766	      0.00000000	      0.00000000	      0.00000000	      0.00000000	      0.00000000	    -34.47256051	    -41.80010169	      3.24599060	     23.59374615	      0.00000000	      0.00000000	      0.00000000
      0.16390244	     -2.93265230	      6.73752574	     96.55999721	     -0.75917472	      0.72343106	     -0.28425032	     20.55863419	      0.00000000	      0.00000000	      0.00000000	      0.00000000	      0.00000000	    -33.45465587	    -42.05353644	      5.64234589	     23.79329578	      0.00000000	      0.00000000	      0.00000000
      0.16585366	     -2.77643518	      6.86027712	     96.64443392	     -0.75953616	      0.72355052	     -0.28353453	     20.21823803	      0.00000000	      0.00000000	      0.00000000	      0.00000000	      0.00000000	    -32.30534335	    -42.68147852	      8.21357764	     23.76934778	      0.00000000	      0.00000000	      0.00000000
      0.16780488	     -2.53830275	      6.97703401	     96.67655872	     -0.76004560	      0.72391565	     -0.28280155	     20.10980927	      0.00000000	      0.00000000	      0.00000000	      0.00000000	      0.00000000	    -31.80229459	    -42.40468233	     10.56239503	     23.85906207	      0.00000000	      0.00000000	      0.00000000
      0.16975610	     -2.39205161	      7.07341027	     96.80101259	     -0.76044597	      0.72402657	     -0.28217717	     19.69153400	      0.00000000	      0.00000000	      0.00000000	      0.00000000	      0.00000000	    -30.65157776	    -42.87748057	     13.13571864	     23.90834274	      0.00000000	      0.00000000	      0.00000000
      0.17170732	     -2.20149910	      7.15086491	     96.80039969	     -0.76104476	      0.72441660	     -0.28139389	     19.37884658	      0.00000000	      0.00000000	      0.00000000	      0.00000000	      0.00000000	    -29.60479296	    -43.24698931	     15.73116722	     23.99660083	      0.00000000	      0.00000000	      0.00000000
      0.17365854	     -2.04566286	      7.25256797	     96.78072182	     -0.76155196	      0.72471135	     -0.28073466	     18.85412365	      0.00000000	      0.00000000	      0.00000000	      0.00000000	      0.00000000	    -28.31669832	    -43.56061567	     18.37868842	     24.11765226	      0.00000000	      0.00000000	      0.00000000
      0.17560976	     -1.92058383	      7.30831365	     96.76503522	     -0.76200622	      0.72509998	     -0.28013647	     18.36146420	      0.00000000	      0.00000000	      0.00000000	      0.00000000	      0.00000000	    -26.98263201	    -43.91687392	     21.12612850	     24.21265951	      0.00000000	      0.00000000	      0.00000000
      0.17756098	     -1.78377807	      7.39495852	     96.71535627	     -0.76245333	      0.72538926	     -0.27956110	     17.89777016	      0.00000000	      0.00000000	      0.00000000	      0.00000000	      0.00000000	    -25.70921724	    -44.16385362	     23.87711618	     24.23366158	      0.00000000	      0.00000000	      0.00000000
      0.17951220	     -1.66320361	      7.43000356	     96.69718504	     -0.76283325	      0.72572087	     -0.27892099	     17.43419616	      0.00000000	      0.00000000	      0.00000000	      0.00000000	      0.00000000	    -24.49137850	    -44.35688629	     26.61008355	     24.33823363	      0.00000000	      0.00000000	      0.00000000
      0.18146341	     -1.57763239	      7.45970017	     96.63615904	     -0.76315495	      0.72607511	     -0.27846283	     16.97373613	      0.00000000	      0.00000000	      0.00000000	      0.00000000	      0.00000000	    -23.32433071	    -44.50939963	     29.36684733	     24.37721950	      0.00000000	      0.00000000	      0.00000000
      0.18341463	     -1.36344487	      7.46591672	     96.62517655	     -0.76363248	      0.72649858	     -0.27790235	     16.87116472	      0.00000000	      0.00000000	      0.00000000	      0.00000000	      0.00000000	    -22.83898634	    -44.47212453	     31.84516261	     24.39822625	      0.00000000	      0.00000000	      0.00000000
      0.18536585	     -1.38366096	      7.51730128	     96.56469815	     -0.76380117	      0.72659277	     -0.27761140	     16.08462414	      0.00000000	      0.00000000	      0.00000000	      0.00000000	      0.00000000	    -20.86905740	    -44.91570276	     35.02580174	     24.23567088	      0.00000000	      0.00000000	      0.00000000
      0.18731707	     -1.26756788	      7.52570842	     96.51895168	     -0.76436921	      0.72686267	     -0.27719004	     15.83717885	      0.00000000	      0.00000000	      0.00000000	      0.00000000	      0.00000000	    -20.08512020	    -44.99957237	     37.68075385	     24.17895247	      0.00000000	      0.00000000	      0.00000000
      0.18926829	     -1.24635351	      7.55068034	     96.51604965	     -0.76445445	      0.72702842	     -0.27692403	     15.25566646	      0.00000000	      0.00000000	      0.00000000	      0.00000000	      0.00000000	    -18.73092775	    -45.17445836	     40.51383593	     24.08000929	      0.00000000	      0.00000000	      0.00000000
      0.19121951	     -1.21348771	      7.51716437	     96.43435531	     -0.76474198	      0.72722847	     -0.27672056	     14.89019765	      0.00000000	      0.00000000	      0.00000000	      0.00000000	      0.00000000	    -17.75844080	    -45.25615220	     43.33149920	     23.87015487	      0.00000000	      0.00000000	      0.00000000
      0.19317073	     -1.10140629	      7.51306682	     96.41872957	     -0.76509304	      0.72749979	     -0.27654962	     14.64430398	      0.00000000	      0.00000000	      0.00000000	      0.00000000	      0.00000000	    -17.06787282	    -45.29310947	     45.84988256	     23.83147116	      0.00000000	      0.00000000	      0.00000000
      0.19512195	     -1.15021194	      7.48798050	     96.38134138	     -0.76521659	      0.72755500	     -0.27645626	     14.03303602	      0.00000000	      0.00000000	      0.00000000	      0.00000000	      0.00000000	    -15.79752756	    -45.36552592	     48.66623122	     23.68289863	      0.00000000	      0.00000000	      0.00000000
      0.19707317	     -1.16849028	      7.47825758	     96.30663006	     -0.76533186	      0.72780028	     -0.27648958	     13.66583478	      0.00000000	      0.00000000	      0.00000000	      0.00000000	      0.00000000	    -15.01393351	    -45.33490280	     51.22814298	     23.57953201	      0.00000000	      0.00000000	      0.00000000
      0.19902439	     -1.14867090	      7.52899636	     96.27228561	     -0.76553304	      0.72781785	     -0.27631515	     13.19008087	      0.00000000	      0.00000000	      0.00000000	      0.00000000	      0.00000000	    -13.90995938	    -45.37675941	     53.84615220	     23.39899397	      0.00000000	      0.00000000	      0.00000000
      0.20097561	     -1.03502073	      7.57142359	     96.27002095	     -0.76577833	      0.72800345	     -0.27613451	     13.11536293	      0.00000000	      0.00000000	      0.00000000	      0.00000000	      0.00000000	    -13.64425672	    -45.36950871	     56.06080150	     23.21312978	      0.00000000	      0.00000000	      0.00000000
      0.20292683	     -1.06968633	      7.64102440	     96.21627685	     -0.76579839	      0.72786163	     -0.27612207	     12.50778733	      0.00000000	      0.00000000	      0.00000000	      0.00000000	      0.00000000	    -12.59949948	    -45.28954376	     58.50170995	     23.10871075	      0.00000000	      0.00000000	      0.00000000
